<svg xmlns="http://www.w3.org/2000/svg" viewBox="0 0 64 64">
  <defs>
    <linearGradient id="g" x1="0" y1="0" x2="1" y2="1">
      <stop offset="0%" stop-color="#06b6d4"/>
      <stop offset="100%" stop-color="#0ea5e9"/>
    </linearGradient>
    <filter id="shadow" x="-50%" y="-50%" width="200%" height="200%">
      <feDropShadow dx="0" dy="2" stdDeviation="2" flood-color="#0ea5e988"/>
    </filter>
  </defs>
  <rect x="4" y="4" width="56" height="56" rx="14" fill="url(#g)" filter="url(#shadow)"/>
  <path d="M20 40c2.5 4 6.5 6 12 6 7.5 0 12-3.5 12-9 0-4.5-3-7-9-8.2l-4.2-.8c-3.6-.7-4.8-1.8-4.8-3.7 0-2.3 2.3-3.9 6-3.9 3.4 0 6.2 1.2 8.3 3.4l3.3-3.2C40.6 17.3 36.7 16 32 16c-7.1 0-11.8 3.6-11.8 9.1 0 4.9 3.2 7.3 9.8 8.6l4.6.9c3.6.7 4.8 1.7 4.8 3.6 0 2.5-2.6 4.1-6.7 4.1-4 0-7.3-1.4-9.6-4.1L20 40z" fill="#ffffff"/>
</svg>
